<svg width="190" height="37" viewBox="0 0 190 37" fill="none" xmlns="http://www.w3.org/2000/svg">
<path d="M36.8739 25.1667H46.264V22.9873H39.4737V19.0701H45.7244V16.8907H39.4737V12.9945H46.208V10.8151H36.8739V25.1667ZM52.4566 25.3769C55.1615 25.3769 56.8854 23.7721 57.0676 21.4877H54.643C54.4257 22.6439 53.5918 23.3096 52.4776 23.3096C50.8939 23.3096 49.8708 21.9852 49.8708 19.7848C49.8708 17.6125 50.915 16.3091 52.4776 16.3091C53.697 16.3091 54.4468 17.0939 54.643 18.1311H57.0676C56.8924 15.7975 55.0704 14.2629 52.4426 14.2629C49.2892 14.2629 47.299 16.5403 47.299 19.8269C47.299 23.0854 49.2401 25.3769 52.4566 25.3769ZM62.859 25.3769C66.0124 25.3769 68.0166 23.1555 68.0166 19.8269C68.0166 16.4913 66.0124 14.2629 62.859 14.2629C59.7056 14.2629 57.7014 16.4913 57.7014 19.8269C57.7014 23.1555 59.7056 25.3769 62.859 25.3769ZM62.873 23.3447C61.1281 23.3447 60.2732 21.789 60.2732 19.8199C60.2732 17.8507 61.1281 16.274 62.873 16.274C64.5899 16.274 65.4448 17.8507 65.4448 19.8199C65.4448 21.789 64.5899 23.3447 62.873 23.3447ZM69.183 25.1667H71.7197V18.6216C71.7197 17.2971 72.6027 16.4002 73.6959 16.4002C74.768 16.4002 75.5038 17.122 75.5038 18.2292V25.1667H77.9915V18.4534C77.9915 17.2411 78.7133 16.4002 79.9396 16.4002C80.9627 16.4002 81.7756 17.0028 81.7756 18.3343V25.1667H84.3194V17.9418C84.3194 15.5382 82.9319 14.2629 80.9557 14.2629C79.393 14.2629 78.2017 15.0337 77.7252 16.232H77.6131C77.1997 15.0127 76.1555 14.2629 74.705 14.2629C73.2614 14.2629 72.1822 15.0057 71.7338 16.232H71.6076V14.403H69.183V25.1667ZM85.9062 25.1667H88.443V18.6216C88.443 17.2971 89.3259 16.4002 90.4191 16.4002C91.4913 16.4002 92.2271 17.122 92.2271 18.2292V25.1667H94.7147V18.4534C94.7147 17.2411 95.4365 16.4002 96.6629 16.4002C97.686 16.4002 98.4988 17.0028 98.4988 18.3343V25.1667H101.043V17.9418C101.043 15.5382 99.6551 14.2629 97.679 14.2629C96.1163 14.2629 94.925 15.0337 94.4485 16.232H94.3363C93.9229 15.0127 92.8788 14.2629 91.4282 14.2629C89.9846 14.2629 88.9055 15.0057 88.457 16.232H88.3308V14.403H85.9062V25.1667ZM107.395 25.3769C109.903 25.3769 111.627 24.1506 112.076 22.2795L109.707 22.0132C109.364 22.9242 108.523 23.4007 107.43 23.4007C105.79 23.4007 104.704 22.3216 104.683 20.4786H112.181V19.7007C112.181 15.9237 109.91 14.2629 107.261 14.2629C104.178 14.2629 102.167 16.5263 102.167 19.8479C102.167 23.2256 104.15 25.3769 107.395 25.3769ZM104.69 18.7687C104.767 17.3953 105.783 16.239 107.296 16.239C108.754 16.239 109.735 17.3042 109.749 18.7687H104.69ZM113.34 25.1667H115.877V18.8388C115.877 17.4723 116.907 16.5053 118.302 16.5053C118.729 16.5053 119.262 16.5824 119.479 16.6525V14.3189C119.248 14.2769 118.848 14.2489 118.568 14.2489C117.335 14.2489 116.304 14.9496 115.912 16.197H115.8V14.403H113.34V25.1667ZM124.429 25.3769C127.134 25.3769 128.858 23.7721 129.04 21.4877H126.616C126.398 22.6439 125.565 23.3096 124.45 23.3096C122.867 23.3096 121.844 21.9852 121.844 19.7848C121.844 17.6125 122.888 16.3091 124.45 16.3091C125.67 16.3091 126.419 17.0939 126.616 18.1311H129.04C128.865 15.7975 127.043 14.2629 124.415 14.2629C121.262 14.2629 119.272 16.5403 119.272 19.8269C119.272 23.0854 121.213 25.3769 124.429 25.3769ZM134.902 25.3769C137.411 25.3769 139.134 24.1506 139.583 22.2795L137.214 22.0132C136.871 22.9242 136.03 23.4007 134.937 23.4007C133.297 23.4007 132.211 22.3216 132.19 20.4786H139.688V19.7007C139.688 15.9237 137.418 14.2629 134.769 14.2629C131.685 14.2629 129.674 16.5263 129.674 19.8479C129.674 23.2256 131.657 25.3769 134.902 25.3769ZM132.197 18.7687C132.274 17.3953 133.29 16.239 134.804 16.239C136.261 16.239 137.242 17.3042 137.256 18.7687H132.197Z" fill="#255957"/>
<rect x="6.16669" y="14.8" width="7.40001" height="7.39999" fill="#05B2DC"/>
<rect x="28.3667" y="22.2" width="7.4" height="7.39999" transform="rotate(180 28.3667 22.2)" fill="#05B2DC"/>
<path d="M13.5667 14.8L20.9667 7.39999V14.8L13.5667 22.2V14.8Z" fill="#255957"/>
<path d="M20.9667 22.2L13.5667 29.6L13.5667 22.2L20.9667 14.8L20.9667 22.2Z" fill="#255957"/>
<path d="M6.16669 14.8L20.9667 0V7.39999L13.5667 14.8H6.16669Z" fill="#F7C548"/>
<path d="M28.3667 22.2L13.5667 37L13.5667 29.6L20.9667 22.2L28.3667 22.2Z" fill="#F7C548"/>
<path d="M141.942 25.1667H145.411V19.3994H151.115V16.5754H145.411V13.6322H151.739V10.8151H141.942V25.1667ZM156.32 10.8151H152.893V25.1667H156.32V10.8151ZM162.934 25.3699C166.318 25.3699 168.371 23.1345 168.371 19.8199C168.371 16.4983 166.318 14.2629 162.934 14.2629C159.549 14.2629 157.496 16.4983 157.496 19.8199C157.496 23.1345 159.549 25.3699 162.934 25.3699ZM162.955 22.7841C161.686 22.7841 160.985 21.5788 160.985 19.7989C160.985 18.0119 161.686 16.7996 162.955 16.7996C164.181 16.7996 164.882 18.0119 164.882 19.7989C164.882 21.5788 164.181 22.7841 162.955 22.7841ZM171.315 25.1667H174.987L176.669 18.8949H176.788L178.469 25.1667H182.134L184.944 14.403H181.504L180.095 21.2494H180.004L178.406 14.403H175.05L173.494 21.2985H173.403L171.952 14.403H168.512L171.315 25.1667Z" fill="url(#paint0_linear_2:565)"/>
<defs>
<linearGradient id="paint0_linear_2:565" x1="178.45" y1="21.6505" x2="144.337" y2="13.5112" gradientUnits="userSpaceOnUse">
<stop stop-color="#F7C548"/>
<stop offset="1" stop-color="#05B2DC"/>
</linearGradient>
</defs>
</svg>
