<svg width="246" height="48" viewBox="0 0 246 48" fill="none" xmlns="http://www.w3.org/2000/svg">
<path d="M47.8364 33H60.0182V30.1727H51.2091V25.0909H59.3182V22.2636H51.2091V17.2091H59.9455V14.3818H47.8364V33ZM68.0518 33.2727C71.5609 33.2727 73.7973 31.1909 74.0336 28.2273H70.8882C70.6064 29.7273 69.5245 30.5909 68.0791 30.5909C66.0245 30.5909 64.6973 28.8727 64.6973 26.0182C64.6973 23.2 66.0518 21.5091 68.0791 21.5091C69.6609 21.5091 70.6336 22.5273 70.8882 23.8727H74.0336C73.8064 20.8455 71.4427 18.8545 68.0336 18.8545C63.9427 18.8545 61.3609 21.8091 61.3609 26.0727C61.3609 30.3 63.8791 33.2727 68.0518 33.2727ZM81.5468 33.2727C85.6377 33.2727 88.2377 30.3909 88.2377 26.0727C88.2377 21.7455 85.6377 18.8545 81.5468 18.8545C77.4559 18.8545 74.8559 21.7455 74.8559 26.0727C74.8559 30.3909 77.4559 33.2727 81.5468 33.2727ZM81.565 30.6364C79.3014 30.6364 78.1923 28.6182 78.1923 26.0636C78.1923 23.5091 79.3014 21.4636 81.565 21.4636C83.7923 21.4636 84.9014 23.5091 84.9014 26.0636C84.9014 28.6182 83.7923 30.6364 81.565 30.6364ZM89.7509 33H93.0418V24.5091C93.0418 22.7909 94.1873 21.6273 95.6055 21.6273C96.9964 21.6273 97.9509 22.5636 97.9509 24V33H101.178V24.2909C101.178 22.7182 102.115 21.6273 103.705 21.6273C105.033 21.6273 106.087 22.4091 106.087 24.1364V33H109.387V23.6273C109.387 20.5091 107.587 18.8545 105.024 18.8545C102.996 18.8545 101.451 19.8545 100.833 21.4091H100.687C100.151 19.8273 98.7964 18.8545 96.9145 18.8545C95.0418 18.8545 93.6418 19.8182 93.06 21.4091H92.8964V19.0364H89.7509V33ZM111.446 33H114.737V24.5091C114.737 22.7909 115.882 21.6273 117.3 21.6273C118.691 21.6273 119.646 22.5636 119.646 24V33H122.873V24.2909C122.873 22.7182 123.81 21.6273 125.4 21.6273C126.728 21.6273 127.782 22.4091 127.782 24.1364V33H131.082V23.6273C131.082 20.5091 129.282 18.8545 126.719 18.8545C124.691 18.8545 123.146 19.8545 122.528 21.4091H122.382C121.846 19.8273 120.491 18.8545 118.61 18.8545C116.737 18.8545 115.337 19.8182 114.755 21.4091H114.591V19.0364H111.446V33ZM139.323 33.2727C142.577 33.2727 144.814 31.6818 145.395 29.2545L142.323 28.9091C141.877 30.0909 140.786 30.7091 139.368 30.7091C137.241 30.7091 135.832 29.3091 135.805 26.9182H145.532V25.9091C145.532 21.0091 142.586 18.8545 139.15 18.8545C135.15 18.8545 132.541 21.7909 132.541 26.1C132.541 30.4818 135.114 33.2727 139.323 33.2727ZM135.814 24.7C135.914 22.9182 137.232 21.4182 139.195 21.4182C141.086 21.4182 142.359 22.8 142.377 24.7H135.814ZM147.036 33H150.327V24.7909C150.327 23.0182 151.663 21.7636 153.472 21.7636C154.027 21.7636 154.718 21.8636 155 21.9545V18.9273C154.7 18.8727 154.181 18.8364 153.818 18.8364C152.218 18.8364 150.881 19.7455 150.372 21.3636H150.227V19.0364H147.036V33ZM161.422 33.2727C164.931 33.2727 167.167 31.1909 167.404 28.2273H164.258C163.976 29.7273 162.895 30.5909 161.449 30.5909C159.395 30.5909 158.067 28.8727 158.067 26.0182C158.067 23.2 159.422 21.5091 161.449 21.5091C163.031 21.5091 164.004 22.5273 164.258 23.8727H167.404C167.176 20.8455 164.813 18.8545 161.404 18.8545C157.313 18.8545 154.731 21.8091 154.731 26.0727C154.731 30.3 157.249 33.2727 161.422 33.2727ZM175.008 33.2727C178.262 33.2727 180.499 31.6818 181.08 29.2545L178.008 28.9091C177.562 30.0909 176.471 30.7091 175.053 30.7091C172.926 30.7091 171.517 29.3091 171.49 26.9182H181.217V25.9091C181.217 21.0091 178.271 18.8545 174.835 18.8545C170.835 18.8545 168.226 21.7909 168.226 26.1C168.226 30.4818 170.799 33.2727 175.008 33.2727ZM171.499 24.7C171.599 22.9182 172.917 21.4182 174.88 21.4182C176.771 21.4182 178.044 22.8 178.062 24.7H171.499Z" fill="#255957"/>
<rect x="8" y="19.2" width="9.60001" height="9.59999" fill="#05B2DC"/>
<rect x="36.8" y="28.8" width="9.60001" height="9.59999" transform="rotate(180 36.8 28.8)" fill="#05B2DC"/>
<path d="M17.6 19.2L27.2 9.59998V19.2L17.6 28.8V19.2Z" fill="#255957"/>
<path d="M27.2 28.8L17.6 38.4L17.6 28.8L27.2 19.2L27.2 28.8Z" fill="#255957"/>
<path d="M8 19.2L27.2 0V9.59999L17.6 19.2H8Z" fill="#F7C548"/>
<path d="M36.8 28.8L17.6 48L17.6 38.4L27.2 28.8L36.8 28.8Z" fill="#F7C548"/>
<path d="M184.141 33H188.641V25.5182H196.041V21.8545H188.641V18.0364H196.85V14.3818H184.141V33ZM202.794 14.3818H198.348V33H202.794V14.3818ZM211.373 33.2636C215.764 33.2636 218.428 30.3636 218.428 26.0636C218.428 21.7545 215.764 18.8545 211.373 18.8545C206.982 18.8545 204.319 21.7545 204.319 26.0636C204.319 30.3636 206.982 33.2636 211.373 33.2636ZM211.401 29.9091C209.755 29.9091 208.846 28.3455 208.846 26.0364C208.846 23.7182 209.755 22.1455 211.401 22.1455C212.991 22.1455 213.901 23.7182 213.901 26.0364C213.901 28.3455 212.991 29.9091 211.401 29.9091ZM222.246 33H227.01L229.192 24.8636H229.346L231.528 33H236.283L239.928 19.0364H235.464L233.637 27.9182H233.519L231.446 19.0364H227.092L225.073 27.9818H224.955L223.073 19.0364H218.61L222.246 33Z" fill="url(#paint0_linear_2:563)"/>
<defs>
<linearGradient id="paint0_linear_2:563" x1="231.025" y1="28" x2="187.144" y2="17.5782" gradientUnits="userSpaceOnUse">
<stop stop-color="#F7C548"/>
<stop offset="1" stop-color="#05B2DC"/>
</linearGradient>
</defs>
</svg>
