<svg width="204" height="280" viewBox="0 0 204 280" fill="none" xmlns="http://www.w3.org/2000/svg">
<line x1="64.8692" y1="270.591" x2="61.9529" y2="278.604" stroke="#05B2DC" stroke-width="1.36913"/>
<line x1="46.6431" y1="270.966" x2="42.3798" y2="278.35" stroke="#05B2DC" stroke-width="1.36913"/>
<line x1="28.3027" y1="271.33" x2="22.8219" y2="277.862" stroke="#05B2DC" stroke-width="1.36913"/>
<line x1="9.82333" y1="271.947" x2="3.29148" y2="277.428" stroke="#05B2DC" stroke-width="1.36913"/>
<line x1="191.877" y1="270.898" x2="198.409" y2="276.379" stroke="#05B2DC" stroke-width="1.36913"/>
<line x1="173.564" y1="270.45" x2="179.045" y2="276.982" stroke="#05B2DC" stroke-width="1.36913"/>
<line x1="155.36" y1="270.281" x2="159.624" y2="277.665" stroke="#05B2DC" stroke-width="1.36913"/>
<line x1="137.235" y1="270.123" x2="140.151" y2="278.136" stroke="#05B2DC" stroke-width="1.36913"/>
<line x1="119.157" y1="269.972" x2="120.638" y2="278.369" stroke="#05B2DC" stroke-width="1.36913"/>
<line x1="101.093" y1="270.09" x2="101.093" y2="278.617" stroke="#05B2DC" stroke-width="1.36913"/>
<line x1="83.009" y1="270.209" x2="81.5284" y2="278.607" stroke="#05B2DC" stroke-width="1.36913"/>
<line x1="84.0531" y1="255.669" x2="81.1368" y2="263.682" stroke="#05B2DC" stroke-width="1.36913"/>
<line x1="65.8297" y1="256.044" x2="61.5663" y2="263.429" stroke="#05B2DC" stroke-width="1.36913"/>
<line x1="47.4893" y1="256.408" x2="42.0084" y2="262.94" stroke="#05B2DC" stroke-width="1.36913"/>
<line x1="29.0072" y1="257.025" x2="22.4753" y2="262.506" stroke="#05B2DC" stroke-width="1.36913"/>
<line x1="10.3647" y1="257.893" x2="2.98039" y2="262.157" stroke="#05B2DC" stroke-width="1.36913"/>
<line x1="192.748" y1="255.528" x2="198.229" y2="262.06" stroke="#05B2DC" stroke-width="1.36913"/>
<line x1="174.544" y1="255.36" x2="178.808" y2="262.744" stroke="#05B2DC" stroke-width="1.36913"/>
<line x1="156.422" y1="255.201" x2="159.338" y2="263.214" stroke="#05B2DC" stroke-width="1.36913"/>
<line x1="138.344" y1="255.05" x2="139.824" y2="263.447" stroke="#05B2DC" stroke-width="1.36913"/>
<line x1="120.28" y1="255.169" x2="120.28" y2="263.696" stroke="#05B2DC" stroke-width="1.36913"/>
<line x1="102.193" y1="255.288" x2="100.712" y2="263.685" stroke="#05B2DC" stroke-width="1.36913"/>
<line x1="103.24" y1="240.747" x2="100.323" y2="248.76" stroke="#05B2DC" stroke-width="1.36913"/>
<line x1="85.0134" y1="241.122" x2="80.7501" y2="248.507" stroke="#05B2DC" stroke-width="1.36913"/>
<line x1="66.6731" y1="241.487" x2="61.1922" y2="248.019" stroke="#05B2DC" stroke-width="1.36913"/>
<line x1="48.191" y1="242.104" x2="41.6592" y2="247.585" stroke="#05B2DC" stroke-width="1.36913"/>
<line x1="29.5486" y1="242.972" x2="22.1642" y2="247.235" stroke="#05B2DC" stroke-width="1.36913"/>
<line x1="10.7272" y1="243.555" x2="2.71468" y2="246.471" stroke="#05B2DC" stroke-width="1.36913"/>
<line x1="193.731" y1="240.438" x2="197.994" y2="247.822" stroke="#05B2DC" stroke-width="1.36913"/>
<line x1="175.605" y1="240.279" x2="178.522" y2="248.292" stroke="#05B2DC" stroke-width="1.36913"/>
<line x1="157.527" y1="240.128" x2="159.008" y2="248.525" stroke="#05B2DC" stroke-width="1.36913"/>
<line x1="139.464" y1="240.247" x2="139.464" y2="248.774" stroke="#05B2DC" stroke-width="1.36913"/>
<line x1="121.379" y1="240.366" x2="119.899" y2="248.763" stroke="#05B2DC" stroke-width="1.36913"/>
<line x1="122.423" y1="225.826" x2="119.507" y2="233.838" stroke="#05B2DC" stroke-width="1.36913"/>
<line x1="104.2" y1="226.2" x2="99.9366" y2="233.585" stroke="#05B2DC" stroke-width="1.36913"/>
<line x1="85.8596" y1="226.565" x2="80.3787" y2="233.097" stroke="#05B2DC" stroke-width="1.36913"/>
<line x1="67.3775" y1="227.182" x2="60.8457" y2="232.663" stroke="#05B2DC" stroke-width="1.36913"/>
<line x1="48.7324" y1="228.05" x2="41.3481" y2="232.313" stroke="#05B2DC" stroke-width="1.36913"/>
<line x1="29.911" y1="228.633" x2="21.8985" y2="231.549" stroke="#05B2DC" stroke-width="1.36913"/>
<line x1="10.898" y1="229.464" x2="2.50087" y2="230.944" stroke="#05B2DC" stroke-width="1.36913"/>
<line x1="194.792" y1="225.358" x2="197.708" y2="233.37" stroke="#05B2DC" stroke-width="1.36913"/>
<line x1="176.714" y1="225.206" x2="178.195" y2="233.603" stroke="#05B2DC" stroke-width="1.36913"/>
<line x1="158.65" y1="225.325" x2="158.65" y2="233.852" stroke="#05B2DC" stroke-width="1.36913"/>
<line x1="140.563" y1="225.444" x2="139.082" y2="233.841" stroke="#05B2DC" stroke-width="1.36913"/>
<line x1="141.61" y1="210.904" x2="138.694" y2="218.916" stroke="#05B2DC" stroke-width="1.36913"/>
<line x1="123.384" y1="211.279" x2="119.12" y2="218.663" stroke="#05B2DC" stroke-width="1.36913"/>
<line x1="105.043" y1="211.643" x2="99.5625" y2="218.174" stroke="#05B2DC" stroke-width="1.36913"/>
<line x1="86.5614" y1="212.26" x2="80.0295" y2="217.741" stroke="#05B2DC" stroke-width="1.36913"/>
<line x1="67.9189" y1="213.128" x2="60.5345" y2="217.391" stroke="#05B2DC" stroke-width="1.36913"/>
<line x1="49.0975" y1="213.712" x2="41.085" y2="216.628" stroke="#05B2DC" stroke-width="1.36913"/>
<line x1="30.0846" y1="214.541" x2="21.6874" y2="216.022" stroke="#05B2DC" stroke-width="1.36913"/>
<line x1="195.898" y1="210.285" x2="197.379" y2="218.682" stroke="#05B2DC" stroke-width="1.36913"/>
<line x1="177.834" y1="210.404" x2="177.834" y2="218.93" stroke="#05B2DC" stroke-width="1.36913"/>
<line x1="159.75" y1="210.523" x2="158.269" y2="218.92" stroke="#05B2DC" stroke-width="1.36913"/>
<line x1="0.219238" y1="213.982" x2="8.74596" y2="213.982" stroke="#05B2DC" stroke-width="1.36913"/>
<line x1="160.794" y1="195.983" x2="157.877" y2="203.995" stroke="#05B2DC" stroke-width="1.36913"/>
<line x1="142.57" y1="196.357" x2="138.307" y2="203.741" stroke="#05B2DC" stroke-width="1.36913"/>
<line x1="124.23" y1="196.721" x2="118.749" y2="203.253" stroke="#05B2DC" stroke-width="1.36913"/>
<line x1="105.748" y1="197.338" x2="99.216" y2="202.819" stroke="#05B2DC" stroke-width="1.36913"/>
<line x1="87.1027" y1="198.206" x2="79.7184" y2="202.47" stroke="#05B2DC" stroke-width="1.36913"/>
<line x1="68.2814" y1="198.79" x2="60.2689" y2="201.706" stroke="#05B2DC" stroke-width="1.36913"/>
<line x1="49.2684" y1="199.62" x2="40.8712" y2="201.101" stroke="#05B2DC" stroke-width="1.36913"/>
<line x1="197.021" y1="195.482" x2="197.021" y2="204.008" stroke="#05B2DC" stroke-width="1.36913"/>
<line x1="178.934" y1="195.601" x2="177.453" y2="203.998" stroke="#05B2DC" stroke-width="1.36913"/>
<line x1="19.4058" y1="199.06" x2="27.9325" y2="199.06" stroke="#05B2DC" stroke-width="1.36913"/>
<line x1="0.434425" y1="198.272" x2="8.8316" y2="199.752" stroke="#05B2DC" stroke-width="1.36913"/>
<line x1="179.98" y1="181.061" x2="177.064" y2="189.073" stroke="#05B2DC" stroke-width="1.36913"/>
<line x1="161.754" y1="181.435" x2="157.491" y2="188.82" stroke="#05B2DC" stroke-width="1.36913"/>
<line x1="143.414" y1="181.799" x2="137.933" y2="188.331" stroke="#05B2DC" stroke-width="1.36913"/>
<line x1="124.932" y1="182.416" x2="118.4" y2="187.897" stroke="#05B2DC" stroke-width="1.36913"/>
<line x1="106.289" y1="183.284" x2="98.9049" y2="187.548" stroke="#05B2DC" stroke-width="1.36913"/>
<line x1="87.4679" y1="183.868" x2="79.4554" y2="186.784" stroke="#05B2DC" stroke-width="1.36913"/>
<line x1="68.4549" y1="184.698" x2="60.0578" y2="186.179" stroke="#05B2DC" stroke-width="1.36913"/>
<line x1="198.12" y1="180.679" x2="196.639" y2="189.076" stroke="#05B2DC" stroke-width="1.36913"/>
<line x1="38.5896" y1="184.139" x2="47.1163" y2="184.139" stroke="#05B2DC" stroke-width="1.36913"/>
<line x1="19.6209" y1="183.35" x2="28.0181" y2="184.83" stroke="#05B2DC" stroke-width="1.36913"/>
<line x1="0.838505" y1="182.581" x2="8.851" y2="185.497" stroke="#05B2DC" stroke-width="1.36913"/>
<line x1="199.164" y1="166.139" x2="196.248" y2="174.151" stroke="#05B2DC" stroke-width="1.36913"/>
<line x1="180.941" y1="166.513" x2="176.677" y2="173.898" stroke="#05B2DC" stroke-width="1.36913"/>
<line x1="162.6" y1="166.878" x2="157.119" y2="173.41" stroke="#05B2DC" stroke-width="1.36913"/>
<line x1="144.118" y1="167.495" x2="137.586" y2="172.976" stroke="#05B2DC" stroke-width="1.36913"/>
<line x1="125.473" y1="168.363" x2="118.089" y2="172.626" stroke="#05B2DC" stroke-width="1.36913"/>
<line x1="106.652" y1="168.946" x2="98.6392" y2="171.863" stroke="#05B2DC" stroke-width="1.36913"/>
<line x1="87.6388" y1="169.776" x2="79.2416" y2="171.257" stroke="#05B2DC" stroke-width="1.36913"/>
<line x1="1.41723" y1="167.177" x2="8.80159" y2="171.441" stroke="#05B2DC" stroke-width="1.36913"/>
<line x1="57.7734" y1="169.217" x2="66.3002" y2="169.217" stroke="#05B2DC" stroke-width="1.36913"/>
<line x1="38.8048" y1="168.428" x2="47.202" y2="169.908" stroke="#05B2DC" stroke-width="1.36913"/>
<line x1="20.025" y1="167.66" x2="28.0375" y2="170.576" stroke="#05B2DC" stroke-width="1.36913"/>
<line x1="200.124" y1="151.591" x2="195.861" y2="158.976" stroke="#05B2DC" stroke-width="1.36913"/>
<line x1="181.784" y1="151.956" x2="176.303" y2="158.488" stroke="#05B2DC" stroke-width="1.36913"/>
<line x1="163.302" y1="152.573" x2="156.77" y2="158.054" stroke="#05B2DC" stroke-width="1.36913"/>
<line x1="144.66" y1="153.441" x2="137.275" y2="157.704" stroke="#05B2DC" stroke-width="1.36913"/>
<line x1="125.838" y1="154.024" x2="117.826" y2="156.941" stroke="#05B2DC" stroke-width="1.36913"/>
<line x1="106.825" y1="154.855" x2="98.4281" y2="156.335" stroke="#05B2DC" stroke-width="1.36913"/>
<line x1="20.6038" y1="152.255" x2="27.9881" y2="156.519" stroke="#05B2DC" stroke-width="1.36913"/>
<line x1="2.15414" y1="151.524" x2="8.68599" y2="157.005" stroke="#05B2DC" stroke-width="1.36913"/>
<line x1="76.96" y1="154.296" x2="85.4867" y2="154.296" stroke="#05B2DC" stroke-width="1.36913"/>
<line x1="57.9912" y1="153.506" x2="66.3884" y2="154.987" stroke="#05B2DC" stroke-width="1.36913"/>
<line x1="39.2088" y1="152.738" x2="47.2213" y2="155.654" stroke="#05B2DC" stroke-width="1.36913"/>
<line x1="200.971" y1="137.034" x2="195.49" y2="143.566" stroke="#05B2DC" stroke-width="1.36913"/>
<line x1="182.489" y1="137.652" x2="175.957" y2="143.133" stroke="#05B2DC" stroke-width="1.36913"/>
<line x1="163.843" y1="138.519" x2="156.459" y2="142.782" stroke="#05B2DC" stroke-width="1.36913"/>
<line x1="145.022" y1="139.102" x2="137.01" y2="142.019" stroke="#05B2DC" stroke-width="1.36913"/>
<line x1="126.009" y1="139.933" x2="117.612" y2="141.413" stroke="#05B2DC" stroke-width="1.36913"/>
<line x1="39.7876" y1="137.333" x2="47.1719" y2="141.597" stroke="#05B2DC" stroke-width="1.36913"/>
<line x1="21.3406" y1="136.603" x2="27.8724" y2="142.084" stroke="#05B2DC" stroke-width="1.36913"/>
<line x1="3.02734" y1="136.154" x2="8.5082" y2="142.686" stroke="#05B2DC" stroke-width="1.36913"/>
<line x1="96.1438" y1="139.374" x2="104.671" y2="139.374" stroke="#05B2DC" stroke-width="1.36913"/>
<line x1="77.1751" y1="138.584" x2="85.5723" y2="140.065" stroke="#05B2DC" stroke-width="1.36913"/>
<line x1="58.3926" y1="137.816" x2="66.4051" y2="140.732" stroke="#05B2DC" stroke-width="1.36913"/>
<line x1="201.672" y1="122.73" x2="195.14" y2="128.211" stroke="#05B2DC" stroke-width="1.36913"/>
<line x1="183.03" y1="123.598" x2="175.646" y2="127.861" stroke="#05B2DC" stroke-width="1.36913"/>
<line x1="164.209" y1="124.181" x2="156.196" y2="127.097" stroke="#05B2DC" stroke-width="1.36913"/>
<line x1="145.196" y1="125.011" x2="136.798" y2="126.492" stroke="#05B2DC" stroke-width="1.36913"/>
<line x1="58.9741" y1="122.412" x2="66.3585" y2="126.675" stroke="#05B2DC" stroke-width="1.36913"/>
<line x1="40.5244" y1="121.681" x2="47.0563" y2="127.162" stroke="#05B2DC" stroke-width="1.36913"/>
<line x1="22.2139" y1="121.232" x2="27.6947" y2="127.764" stroke="#05B2DC" stroke-width="1.36913"/>
<line x1="4.00764" y1="121.063" x2="8.271" y2="128.448" stroke="#05B2DC" stroke-width="1.36913"/>
<line x1="115.33" y1="124.452" x2="123.857" y2="124.452" stroke="#05B2DC" stroke-width="1.36913"/>
<line x1="96.3616" y1="123.663" x2="104.759" y2="125.144" stroke="#05B2DC" stroke-width="1.36913"/>
<line x1="77.5792" y1="122.894" x2="85.5917" y2="125.811" stroke="#05B2DC" stroke-width="1.36913"/>
<line x1="202.214" y1="108.676" x2="194.829" y2="112.939" stroke="#05B2DC" stroke-width="1.36913"/>
<line x1="183.392" y1="109.259" x2="175.38" y2="112.175" stroke="#05B2DC" stroke-width="1.36913"/>
<line x1="164.379" y1="110.089" x2="155.982" y2="111.57" stroke="#05B2DC" stroke-width="1.36913"/>
<line x1="78.158" y1="107.49" x2="85.5423" y2="111.753" stroke="#05B2DC" stroke-width="1.36913"/>
<line x1="59.711" y1="106.759" x2="66.2428" y2="112.24" stroke="#05B2DC" stroke-width="1.36913"/>
<line x1="41.3977" y1="106.31" x2="46.8786" y2="112.842" stroke="#05B2DC" stroke-width="1.36913"/>
<line x1="23.1942" y1="106.142" x2="27.4575" y2="113.526" stroke="#05B2DC" stroke-width="1.36913"/>
<line x1="5.06888" y1="105.984" x2="7.98519" y2="113.996" stroke="#05B2DC" stroke-width="1.36913"/>
<line x1="134.514" y1="109.53" x2="143.041" y2="109.53" stroke="#05B2DC" stroke-width="1.36913"/>
<line x1="115.545" y1="108.741" x2="123.943" y2="110.222" stroke="#05B2DC" stroke-width="1.36913"/>
<line x1="96.7629" y1="107.972" x2="104.775" y2="110.889" stroke="#05B2DC" stroke-width="1.36913"/>
<line x1="202.579" y1="94.3376" x2="194.566" y2="97.2539" stroke="#05B2DC" stroke-width="1.36913"/>
<line x1="183.566" y1="95.1673" x2="175.169" y2="96.648" stroke="#05B2DC" stroke-width="1.36913"/>
<line x1="97.3444" y1="92.568" x2="104.729" y2="96.8313" stroke="#05B2DC" stroke-width="1.36913"/>
<line x1="78.8948" y1="91.8375" x2="85.4266" y2="97.3184" stroke="#05B2DC" stroke-width="1.36913"/>
<line x1="60.5815" y1="91.3891" x2="66.0624" y2="97.9209" stroke="#05B2DC" stroke-width="1.36913"/>
<line x1="42.378" y1="91.2201" x2="46.6414" y2="98.6045" stroke="#05B2DC" stroke-width="1.36913"/>
<line x1="24.2554" y1="91.0615" x2="27.1717" y2="99.074" stroke="#05B2DC" stroke-width="1.36913"/>
<line x1="6.1774" y1="90.9107" x2="7.65805" y2="99.3079" stroke="#05B2DC" stroke-width="1.36913"/>
<line x1="153.701" y1="94.6082" x2="162.227" y2="94.6082" stroke="#05B2DC" stroke-width="1.36913"/>
<line x1="134.732" y1="93.819" x2="143.129" y2="95.2997" stroke="#05B2DC" stroke-width="1.36913"/>
<line x1="115.949" y1="93.051" x2="123.962" y2="95.9673" stroke="#05B2DC" stroke-width="1.36913"/>
<line x1="202.75" y1="80.246" x2="194.353" y2="81.7267" stroke="#05B2DC" stroke-width="1.36913"/>
<line x1="116.528" y1="77.6466" x2="123.913" y2="81.91" stroke="#05B2DC" stroke-width="1.36913"/>
<line x1="98.0813" y1="76.9155" x2="104.613" y2="82.3964" stroke="#05B2DC" stroke-width="1.36913"/>
<line x1="79.768" y1="76.4671" x2="85.2489" y2="82.9989" stroke="#05B2DC" stroke-width="1.36913"/>
<line x1="61.5645" y1="76.2981" x2="65.8278" y2="83.6825" stroke="#05B2DC" stroke-width="1.36913"/>
<line x1="43.4392" y1="76.1402" x2="46.3555" y2="84.1527" stroke="#05B2DC" stroke-width="1.36913"/>
<line x1="25.3612" y1="75.9887" x2="26.8419" y2="84.3859" stroke="#05B2DC" stroke-width="1.36913"/>
<line x1="7.29754" y1="76.1076" x2="7.29754" y2="84.6343" stroke="#05B2DC" stroke-width="1.36913"/>
<line x1="172.884" y1="79.6868" x2="181.411" y2="79.6868" stroke="#05B2DC" stroke-width="1.36913"/>
<line x1="153.916" y1="78.8977" x2="162.313" y2="80.3783" stroke="#05B2DC" stroke-width="1.36913"/>
<line x1="135.133" y1="78.129" x2="143.146" y2="81.0453" stroke="#05B2DC" stroke-width="1.36913"/>
<line x1="135.715" y1="62.7246" x2="143.099" y2="66.988" stroke="#05B2DC" stroke-width="1.36913"/>
<line x1="117.265" y1="61.9942" x2="123.797" y2="67.475" stroke="#05B2DC" stroke-width="1.36913"/>
<line x1="98.9518" y1="61.5451" x2="104.433" y2="68.0769" stroke="#05B2DC" stroke-width="1.36913"/>
<line x1="80.7483" y1="61.3767" x2="85.0117" y2="68.7611" stroke="#05B2DC" stroke-width="1.36913"/>
<line x1="62.6257" y1="61.2182" x2="65.542" y2="69.2306" stroke="#05B2DC" stroke-width="1.36913"/>
<line x1="44.5478" y1="61.0673" x2="46.0284" y2="69.4645" stroke="#05B2DC" stroke-width="1.36913"/>
<line x1="26.4841" y1="61.1862" x2="26.4841" y2="69.7129" stroke="#05B2DC" stroke-width="1.36913"/>
<line x1="8.39688" y1="61.3051" x2="6.91623" y2="69.7023" stroke="#05B2DC" stroke-width="1.36913"/>
<line x1="192.071" y1="64.7648" x2="200.598" y2="64.7648" stroke="#05B2DC" stroke-width="1.36913"/>
<line x1="173.102" y1="63.9756" x2="181.499" y2="65.4563" stroke="#05B2DC" stroke-width="1.36913"/>
<line x1="154.32" y1="63.207" x2="162.332" y2="66.1233" stroke="#05B2DC" stroke-width="1.36913"/>
<line x1="9.44369" y1="46.7651" x2="6.52739" y2="54.7776" stroke="#05B2DC" stroke-width="1.36913"/>
<line x1="154.899" y1="47.8033" x2="162.283" y2="52.0666" stroke="#05B2DC" stroke-width="1.36913"/>
<line x1="136.452" y1="47.0722" x2="142.983" y2="52.553" stroke="#05B2DC" stroke-width="1.36913"/>
<line x1="118.138" y1="46.6237" x2="123.619" y2="53.1556" stroke="#05B2DC" stroke-width="1.36913"/>
<line x1="99.9348" y1="46.4547" x2="104.198" y2="53.8391" stroke="#05B2DC" stroke-width="1.36913"/>
<line x1="81.8095" y1="46.2968" x2="84.7258" y2="54.3093" stroke="#05B2DC" stroke-width="1.36913"/>
<line x1="63.7316" y1="46.1453" x2="65.2122" y2="54.5425" stroke="#05B2DC" stroke-width="1.36913"/>
<line x1="45.6679" y1="46.2642" x2="45.6679" y2="54.7909" stroke="#05B2DC" stroke-width="1.36913"/>
<line x1="27.5834" y1="46.3831" x2="26.1028" y2="54.7803" stroke="#05B2DC" stroke-width="1.36913"/>
<line x1="192.286" y1="49.0543" x2="200.683" y2="50.5349" stroke="#05B2DC" stroke-width="1.36913"/>
<line x1="173.504" y1="48.2856" x2="181.516" y2="51.2019" stroke="#05B2DC" stroke-width="1.36913"/>
<line x1="28.6275" y1="31.8431" x2="25.7112" y2="39.8555" stroke="#05B2DC" stroke-width="1.36913"/>
<line x1="10.404" y1="32.218" x2="6.14065" y2="39.6023" stroke="#05B2DC" stroke-width="1.36913"/>
<line x1="174.085" y1="32.8812" x2="181.469" y2="37.1446" stroke="#05B2DC" stroke-width="1.36913"/>
<line x1="155.635" y1="32.1502" x2="162.167" y2="37.631" stroke="#05B2DC" stroke-width="1.36913"/>
<line x1="137.322" y1="31.7017" x2="142.803" y2="38.2335" stroke="#05B2DC" stroke-width="1.36913"/>
<line x1="119.119" y1="31.5334" x2="123.382" y2="38.9177" stroke="#05B2DC" stroke-width="1.36913"/>
<line x1="100.996" y1="31.3748" x2="103.912" y2="39.3873" stroke="#05B2DC" stroke-width="1.36913"/>
<line x1="82.9181" y1="31.2233" x2="84.3987" y2="39.6205" stroke="#05B2DC" stroke-width="1.36913"/>
<line x1="64.8544" y1="31.3422" x2="64.8544" y2="39.8689" stroke="#05B2DC" stroke-width="1.36913"/>
<line x1="46.7672" y1="31.461" x2="45.2866" y2="39.8582" stroke="#05B2DC" stroke-width="1.36913"/>
<line x1="192.69" y1="33.3636" x2="200.703" y2="36.2799" stroke="#05B2DC" stroke-width="1.36913"/>
<line x1="47.814" y1="16.921" x2="44.8977" y2="24.9335" stroke="#05B2DC" stroke-width="1.36913"/>
<line x1="29.5878" y1="17.2959" x2="25.3245" y2="24.6803" stroke="#05B2DC" stroke-width="1.36913"/>
<line x1="11.2474" y1="17.6604" x2="5.76656" y2="24.1922" stroke="#05B2DC" stroke-width="1.36913"/>
<line x1="193.269" y1="17.9592" x2="200.653" y2="22.2226" stroke="#05B2DC" stroke-width="1.36913"/>
<line x1="174.822" y1="17.2288" x2="181.354" y2="22.7096" stroke="#05B2DC" stroke-width="1.36913"/>
<line x1="156.509" y1="16.7803" x2="161.99" y2="23.3122" stroke="#05B2DC" stroke-width="1.36913"/>
<line x1="138.305" y1="16.6114" x2="142.568" y2="23.9957" stroke="#05B2DC" stroke-width="1.36913"/>
<line x1="120.18" y1="16.4528" x2="123.096" y2="24.4653" stroke="#05B2DC" stroke-width="1.36913"/>
<line x1="102.102" y1="16.302" x2="103.583" y2="24.6991" stroke="#05B2DC" stroke-width="1.36913"/>
<line x1="84.0382" y1="16.4208" x2="84.0382" y2="24.9476" stroke="#05B2DC" stroke-width="1.36913"/>
<line x1="65.9537" y1="16.5397" x2="64.4731" y2="24.9369" stroke="#05B2DC" stroke-width="1.36913"/>
<line x1="66.9978" y1="1.9997" x2="64.0815" y2="10.0122" stroke="#05B2DC" stroke-width="1.36913"/>
<line x1="48.7744" y1="2.3739" x2="44.511" y2="9.75825" stroke="#05B2DC" stroke-width="1.36913"/>
<line x1="30.434" y1="2.7384" x2="24.9531" y2="9.27024" stroke="#05B2DC" stroke-width="1.36913"/>
<line x1="11.9519" y1="3.35558" x2="5.42009" y2="8.83645" stroke="#05B2DC" stroke-width="1.36913"/>
<line x1="194.006" y1="2.30677" x2="200.538" y2="7.78764" stroke="#05B2DC" stroke-width="1.36913"/>
<line x1="175.692" y1="1.85834" x2="181.173" y2="8.39019" stroke="#05B2DC" stroke-width="1.36913"/>
<line x1="157.489" y1="1.68933" x2="161.752" y2="9.07369" stroke="#05B2DC" stroke-width="1.36913"/>
<line x1="139.366" y1="1.53143" x2="142.283" y2="9.54392" stroke="#05B2DC" stroke-width="1.36913"/>
<line x1="121.288" y1="1.37994" x2="122.769" y2="9.77711" stroke="#05B2DC" stroke-width="1.36913"/>
<line x1="103.225" y1="1.49881" x2="103.225" y2="10.0255" stroke="#05B2DC" stroke-width="1.36913"/>
<line x1="85.1375" y1="1.61768" x2="83.6569" y2="10.0149" stroke="#05B2DC" stroke-width="1.36913"/>
</svg>
