<svg width="233" height="319" viewBox="0 0 233 319" fill="none" xmlns="http://www.w3.org/2000/svg">
<line x1="158.906" y1="9.94872" x2="162.237" y2="0.797391" stroke="#F7C548" stroke-width="1.56373"/>
<line x1="179.722" y1="9.52132" x2="184.592" y2="1.0874" stroke="#F7C548" stroke-width="1.56373"/>
<line x1="200.67" y1="9.10502" x2="206.929" y2="1.64479" stroke="#F7C548" stroke-width="1.56373"/>
<line x1="221.776" y1="8.40012" x2="229.236" y2="2.14024" stroke="#F7C548" stroke-width="1.56373"/>
<line x1="13.8458" y1="9.598" x2="6.38558" y2="3.33812" stroke="#F7C548" stroke-width="1.56373"/>
<line x1="34.762" y1="10.1102" x2="28.5021" y2="2.64993" stroke="#F7C548" stroke-width="1.56373"/>
<line x1="55.5529" y1="10.3032" x2="50.6835" y2="1.86927" stroke="#F7C548" stroke-width="1.56373"/>
<line x1="76.2543" y1="10.4835" x2="72.9235" y2="1.33222" stroke="#F7C548" stroke-width="1.56373"/>
<line x1="96.9018" y1="10.6566" x2="95.2107" y2="1.06586" stroke="#F7C548" stroke-width="1.56373"/>
<line x1="117.533" y1="10.5208" x2="117.533" y2="0.782144" stroke="#F7C548" stroke-width="1.56373"/>
<line x1="138.188" y1="10.385" x2="139.879" y2="0.794327" stroke="#F7C548" stroke-width="1.56373"/>
<line x1="136.995" y1="26.9917" x2="140.326" y2="17.8403" stroke="#F7C548" stroke-width="1.56373"/>
<line x1="157.809" y1="26.5635" x2="162.678" y2="18.1296" stroke="#F7C548" stroke-width="1.56373"/>
<line x1="178.756" y1="26.148" x2="185.016" y2="18.6877" stroke="#F7C548" stroke-width="1.56373"/>
<line x1="199.865" y1="25.443" x2="207.325" y2="19.1832" stroke="#F7C548" stroke-width="1.56373"/>
<line x1="221.157" y1="24.4517" x2="229.591" y2="19.5824" stroke="#F7C548" stroke-width="1.56373"/>
<line x1="12.8516" y1="27.1531" x2="6.59168" y2="19.6929" stroke="#F7C548" stroke-width="1.56373"/>
<line x1="33.6424" y1="27.3453" x2="28.7731" y2="18.9114" stroke="#F7C548" stroke-width="1.56373"/>
<line x1="54.3408" y1="27.5265" x2="51.01" y2="18.3751" stroke="#F7C548" stroke-width="1.56373"/>
<line x1="74.9883" y1="27.6987" x2="73.2972" y2="18.108" stroke="#F7C548" stroke-width="1.56373"/>
<line x1="95.6194" y1="27.563" x2="95.6194" y2="17.8243" stroke="#F7C548" stroke-width="1.56373"/>
<line x1="116.277" y1="27.4272" x2="117.968" y2="17.8365" stroke="#F7C548" stroke-width="1.56373"/>
<line x1="115.082" y1="44.0346" x2="118.413" y2="34.8832" stroke="#F7C548" stroke-width="1.56373"/>
<line x1="135.898" y1="43.6064" x2="140.768" y2="35.1725" stroke="#F7C548" stroke-width="1.56373"/>
<line x1="156.846" y1="43.1901" x2="163.105" y2="35.7299" stroke="#F7C548" stroke-width="1.56373"/>
<line x1="177.955" y1="42.4852" x2="185.415" y2="36.2253" stroke="#F7C548" stroke-width="1.56373"/>
<line x1="199.247" y1="41.4938" x2="207.681" y2="36.6245" stroke="#F7C548" stroke-width="1.56373"/>
<line x1="220.743" y1="40.8277" x2="229.895" y2="37.4969" stroke="#F7C548" stroke-width="1.56373"/>
<line x1="11.7288" y1="44.3883" x2="6.85951" y2="35.9544" stroke="#F7C548" stroke-width="1.56373"/>
<line x1="32.4303" y1="44.5694" x2="29.0995" y2="35.4181" stroke="#F7C548" stroke-width="1.56373"/>
<line x1="53.0777" y1="44.7416" x2="51.3866" y2="35.151" stroke="#F7C548" stroke-width="1.56373"/>
<line x1="73.7089" y1="44.6059" x2="73.7089" y2="34.8672" stroke="#F7C548" stroke-width="1.56373"/>
<line x1="94.3638" y1="44.4701" x2="96.0549" y2="34.8794" stroke="#F7C548" stroke-width="1.56373"/>
<line x1="93.1713" y1="61.0767" x2="96.5021" y2="51.9254" stroke="#F7C548" stroke-width="1.56373"/>
<line x1="113.985" y1="60.6493" x2="118.854" y2="52.2154" stroke="#F7C548" stroke-width="1.56373"/>
<line x1="134.932" y1="60.233" x2="141.192" y2="52.7728" stroke="#F7C548" stroke-width="1.56373"/>
<line x1="156.041" y1="59.5281" x2="163.501" y2="53.2683" stroke="#F7C548" stroke-width="1.56373"/>
<line x1="177.336" y1="58.5368" x2="185.77" y2="53.6674" stroke="#F7C548" stroke-width="1.56373"/>
<line x1="198.833" y1="57.8706" x2="207.984" y2="54.5398" stroke="#F7C548" stroke-width="1.56373"/>
<line x1="220.548" y1="56.9222" x2="230.139" y2="55.2311" stroke="#F7C548" stroke-width="1.56373"/>
<line x1="10.5168" y1="61.6116" x2="7.18594" y2="52.4602" stroke="#F7C548" stroke-width="1.56373"/>
<line x1="31.1642" y1="61.7846" x2="29.4731" y2="52.1939" stroke="#F7C548" stroke-width="1.56373"/>
<line x1="51.7953" y1="61.6488" x2="51.7953" y2="51.9102" stroke="#F7C548" stroke-width="1.56373"/>
<line x1="72.4533" y1="61.513" x2="74.1444" y2="51.9223" stroke="#F7C548" stroke-width="1.56373"/>
<line x1="71.2578" y1="78.1197" x2="74.5886" y2="68.9683" stroke="#F7C548" stroke-width="1.56373"/>
<line x1="92.0744" y1="77.6915" x2="96.9437" y2="69.2576" stroke="#F7C548" stroke-width="1.56373"/>
<line x1="113.022" y1="77.276" x2="119.281" y2="69.8157" stroke="#F7C548" stroke-width="1.56373"/>
<line x1="134.131" y1="76.5703" x2="141.591" y2="70.3104" stroke="#F7C548" stroke-width="1.56373"/>
<line x1="155.423" y1="75.5797" x2="163.857" y2="70.7104" stroke="#F7C548" stroke-width="1.56373"/>
<line x1="176.919" y1="74.9128" x2="186.071" y2="71.582" stroke="#F7C548" stroke-width="1.56373"/>
<line x1="198.634" y1="73.9651" x2="208.225" y2="72.274" stroke="#F7C548" stroke-width="1.56373"/>
<line x1="9.25376" y1="78.8267" x2="7.56266" y2="69.236" stroke="#F7C548" stroke-width="1.56373"/>
<line x1="29.8849" y1="78.691" x2="29.8849" y2="68.9523" stroke="#F7C548" stroke-width="1.56373"/>
<line x1="50.5398" y1="78.5552" x2="52.2309" y2="68.9645" stroke="#F7C548" stroke-width="1.56373"/>
<line x1="232.745" y1="74.6038" x2="223.006" y2="74.6038" stroke="#F7C548" stroke-width="1.56373"/>
<line x1="49.3473" y1="95.1618" x2="52.6781" y2="86.0105" stroke="#F7C548" stroke-width="1.56373"/>
<line x1="70.1609" y1="94.7344" x2="75.0302" y2="86.3005" stroke="#F7C548" stroke-width="1.56373"/>
<line x1="91.1081" y1="94.3181" x2="97.3679" y2="86.8579" stroke="#F7C548" stroke-width="1.56373"/>
<line x1="112.217" y1="93.6132" x2="119.677" y2="87.3533" stroke="#F7C548" stroke-width="1.56373"/>
<line x1="133.512" y1="92.6219" x2="141.946" y2="87.7525" stroke="#F7C548" stroke-width="1.56373"/>
<line x1="155.009" y1="91.9557" x2="164.16" y2="88.6249" stroke="#F7C548" stroke-width="1.56373"/>
<line x1="176.724" y1="91.0073" x2="186.315" y2="89.3162" stroke="#F7C548" stroke-width="1.56373"/>
<line x1="7.97131" y1="95.7339" x2="7.97131" y2="85.9953" stroke="#F7C548" stroke-width="1.56373"/>
<line x1="28.6293" y1="95.5981" x2="30.3204" y2="86.0074" stroke="#F7C548" stroke-width="1.56373"/>
<line x1="210.831" y1="91.6467" x2="201.092" y2="91.6467" stroke="#F7C548" stroke-width="1.56373"/>
<line x1="232.499" y1="92.5472" x2="222.908" y2="90.8561" stroke="#F7C548" stroke-width="1.56373"/>
<line x1="27.4337" y1="112.205" x2="30.7646" y2="103.053" stroke="#F7C548" stroke-width="1.56373"/>
<line x1="48.2504" y1="111.777" x2="53.1197" y2="103.343" stroke="#F7C548" stroke-width="1.56373"/>
<line x1="69.1976" y1="111.361" x2="75.4574" y2="103.901" stroke="#F7C548" stroke-width="1.56373"/>
<line x1="90.3065" y1="110.656" x2="97.7667" y2="104.396" stroke="#F7C548" stroke-width="1.56373"/>
<line x1="111.599" y1="109.665" x2="120.033" y2="104.795" stroke="#F7C548" stroke-width="1.56373"/>
<line x1="133.095" y1="108.999" x2="142.246" y2="105.668" stroke="#F7C548" stroke-width="1.56373"/>
<line x1="154.81" y1="108.05" x2="164.401" y2="106.359" stroke="#F7C548" stroke-width="1.56373"/>
<line x1="6.71573" y1="112.641" x2="8.40683" y2="103.05" stroke="#F7C548" stroke-width="1.56373"/>
<line x1="188.921" y1="108.689" x2="179.182" y2="108.689" stroke="#F7C548" stroke-width="1.56373"/>
<line x1="210.585" y1="109.59" x2="200.995" y2="107.899" stroke="#F7C548" stroke-width="1.56373"/>
<line x1="232.037" y1="110.468" x2="222.886" y2="107.137" stroke="#F7C548" stroke-width="1.56373"/>
<line x1="5.52322" y1="129.248" x2="8.85404" y2="120.096" stroke="#F7C548" stroke-width="1.56373"/>
<line x1="26.3369" y1="128.82" x2="31.2062" y2="120.386" stroke="#F7C548" stroke-width="1.56373"/>
<line x1="47.2841" y1="128.403" x2="53.5439" y2="120.943" stroke="#F7C548" stroke-width="1.56373"/>
<line x1="68.393" y1="127.698" x2="75.8532" y2="121.438" stroke="#F7C548" stroke-width="1.56373"/>
<line x1="89.6882" y1="126.707" x2="98.1221" y2="121.838" stroke="#F7C548" stroke-width="1.56373"/>
<line x1="111.185" y1="126.041" x2="120.336" y2="122.71" stroke="#F7C548" stroke-width="1.56373"/>
<line x1="132.9" y1="125.093" x2="142.491" y2="123.402" stroke="#F7C548" stroke-width="1.56373"/>
<line x1="231.376" y1="128.061" x2="222.942" y2="123.192" stroke="#F7C548" stroke-width="1.56373"/>
<line x1="167.01" y1="125.732" x2="157.272" y2="125.732" stroke="#F7C548" stroke-width="1.56373"/>
<line x1="188.675" y1="126.633" x2="179.084" y2="124.942" stroke="#F7C548" stroke-width="1.56373"/>
<line x1="210.124" y1="127.51" x2="200.973" y2="124.179" stroke="#F7C548" stroke-width="1.56373"/>
<line x1="4.4264" y1="145.862" x2="9.29572" y2="137.429" stroke="#F7C548" stroke-width="1.56373"/>
<line x1="25.3736" y1="145.446" x2="31.6335" y2="137.986" stroke="#F7C548" stroke-width="1.56373"/>
<line x1="46.4825" y1="144.741" x2="53.9427" y2="138.481" stroke="#F7C548" stroke-width="1.56373"/>
<line x1="67.7747" y1="143.75" x2="76.2086" y2="138.881" stroke="#F7C548" stroke-width="1.56373"/>
<line x1="89.2711" y1="143.084" x2="98.4225" y2="139.753" stroke="#F7C548" stroke-width="1.56373"/>
<line x1="110.986" y1="142.135" x2="120.577" y2="140.444" stroke="#F7C548" stroke-width="1.56373"/>
<line x1="209.463" y1="145.104" x2="201.029" y2="140.235" stroke="#F7C548" stroke-width="1.56373"/>
<line x1="230.535" y1="145.939" x2="223.075" y2="139.679" stroke="#F7C548" stroke-width="1.56373"/>
<line x1="145.097" y1="142.774" x2="135.358" y2="142.774" stroke="#F7C548" stroke-width="1.56373"/>
<line x1="166.761" y1="143.675" x2="157.171" y2="141.984" stroke="#F7C548" stroke-width="1.56373"/>
<line x1="188.213" y1="144.553" x2="179.062" y2="141.222" stroke="#F7C548" stroke-width="1.56373"/>
<line x1="3.46002" y1="162.489" x2="9.7199" y2="155.029" stroke="#F7C548" stroke-width="1.56373"/>
<line x1="24.569" y1="161.783" x2="32.0292" y2="155.524" stroke="#F7C548" stroke-width="1.56373"/>
<line x1="45.8642" y1="160.793" x2="54.2981" y2="155.923" stroke="#F7C548" stroke-width="1.56373"/>
<line x1="67.3607" y1="160.127" x2="76.512" y2="156.796" stroke="#F7C548" stroke-width="1.56373"/>
<line x1="89.076" y1="159.178" x2="98.6667" y2="157.487" stroke="#F7C548" stroke-width="1.56373"/>
<line x1="187.552" y1="162.147" x2="179.118" y2="157.278" stroke="#F7C548" stroke-width="1.56373"/>
<line x1="208.621" y1="162.981" x2="201.161" y2="156.721" stroke="#F7C548" stroke-width="1.56373"/>
<line x1="229.537" y1="163.494" x2="223.278" y2="156.034" stroke="#F7C548" stroke-width="1.56373"/>
<line x1="123.186" y1="159.817" x2="113.448" y2="159.817" stroke="#F7C548" stroke-width="1.56373"/>
<line x1="144.851" y1="160.718" x2="135.26" y2="159.027" stroke="#F7C548" stroke-width="1.56373"/>
<line x1="166.303" y1="161.596" x2="157.152" y2="158.265" stroke="#F7C548" stroke-width="1.56373"/>
<line x1="2.6585" y1="178.826" x2="10.1187" y2="172.566" stroke="#F7C548" stroke-width="1.56373"/>
<line x1="23.9507" y1="177.835" x2="32.3846" y2="172.966" stroke="#F7C548" stroke-width="1.56373"/>
<line x1="45.4471" y1="177.169" x2="54.5985" y2="173.838" stroke="#F7C548" stroke-width="1.56373"/>
<line x1="67.1624" y1="176.22" x2="76.7531" y2="174.529" stroke="#F7C548" stroke-width="1.56373"/>
<line x1="165.639" y1="179.189" x2="157.205" y2="174.32" stroke="#F7C548" stroke-width="1.56373"/>
<line x1="186.711" y1="180.024" x2="179.251" y2="173.764" stroke="#F7C548" stroke-width="1.56373"/>
<line x1="207.624" y1="180.536" x2="201.364" y2="173.076" stroke="#F7C548" stroke-width="1.56373"/>
<line x1="228.418" y1="180.729" x2="223.549" y2="172.295" stroke="#F7C548" stroke-width="1.56373"/>
<line x1="101.273" y1="176.86" x2="91.534" y2="176.86" stroke="#F7C548" stroke-width="1.56373"/>
<line x1="122.937" y1="177.76" x2="113.347" y2="176.069" stroke="#F7C548" stroke-width="1.56373"/>
<line x1="144.389" y1="178.638" x2="135.238" y2="175.307" stroke="#F7C548" stroke-width="1.56373"/>
<line x1="2.04016" y1="194.878" x2="10.4741" y2="190.009" stroke="#F7C548" stroke-width="1.56373"/>
<line x1="23.5367" y1="194.212" x2="32.688" y2="190.881" stroke="#F7C548" stroke-width="1.56373"/>
<line x1="45.252" y1="193.263" x2="54.8427" y2="191.572" stroke="#F7C548" stroke-width="1.56373"/>
<line x1="143.728" y1="196.232" x2="135.294" y2="191.363" stroke="#F7C548" stroke-width="1.56373"/>
<line x1="164.797" y1="197.067" x2="157.337" y2="190.807" stroke="#F7C548" stroke-width="1.56373"/>
<line x1="185.713" y1="197.579" x2="179.454" y2="190.119" stroke="#F7C548" stroke-width="1.56373"/>
<line x1="206.504" y1="197.772" x2="201.635" y2="189.338" stroke="#F7C548" stroke-width="1.56373"/>
<line x1="227.206" y1="197.953" x2="223.875" y2="188.801" stroke="#F7C548" stroke-width="1.56373"/>
<line x1="79.3621" y1="193.902" x2="69.6235" y2="193.902" stroke="#F7C548" stroke-width="1.56373"/>
<line x1="101.027" y1="194.803" x2="91.4362" y2="193.112" stroke="#F7C548" stroke-width="1.56373"/>
<line x1="122.479" y1="195.681" x2="113.328" y2="192.35" stroke="#F7C548" stroke-width="1.56373"/>
<line x1="1.62309" y1="211.254" x2="10.7744" y2="207.923" stroke="#F7C548" stroke-width="1.56373"/>
<line x1="23.3384" y1="210.306" x2="32.9291" y2="208.615" stroke="#F7C548" stroke-width="1.56373"/>
<line x1="121.815" y1="213.275" x2="113.381" y2="208.406" stroke="#F7C548" stroke-width="1.56373"/>
<line x1="142.887" y1="214.109" x2="135.427" y2="207.849" stroke="#F7C548" stroke-width="1.56373"/>
<line x1="163.803" y1="214.621" x2="157.543" y2="207.161" stroke="#F7C548" stroke-width="1.56373"/>
<line x1="184.594" y1="214.815" x2="179.725" y2="206.381" stroke="#F7C548" stroke-width="1.56373"/>
<line x1="205.292" y1="214.996" x2="201.961" y2="205.844" stroke="#F7C548" stroke-width="1.56373"/>
<line x1="225.94" y1="215.168" x2="224.249" y2="205.577" stroke="#F7C548" stroke-width="1.56373"/>
<line x1="57.4486" y1="210.945" x2="47.7099" y2="210.945" stroke="#F7C548" stroke-width="1.56373"/>
<line x1="79.1133" y1="211.846" x2="69.5227" y2="210.155" stroke="#F7C548" stroke-width="1.56373"/>
<line x1="100.565" y1="212.723" x2="91.414" y2="209.393" stroke="#F7C548" stroke-width="1.56373"/>
<line x1="1.42795" y1="227.348" x2="11.0186" y2="225.657" stroke="#F7C548" stroke-width="1.56373"/>
<line x1="99.9044" y1="230.317" x2="91.4704" y2="225.448" stroke="#F7C548" stroke-width="1.56373"/>
<line x1="120.973" y1="231.152" x2="113.513" y2="224.892" stroke="#F7C548" stroke-width="1.56373"/>
<line x1="141.889" y1="231.664" x2="135.63" y2="224.204" stroke="#F7C548" stroke-width="1.56373"/>
<line x1="162.68" y1="231.857" x2="157.811" y2="223.424" stroke="#F7C548" stroke-width="1.56373"/>
<line x1="183.382" y1="232.038" x2="180.051" y2="222.886" stroke="#F7C548" stroke-width="1.56373"/>
<line x1="204.029" y1="232.211" x2="202.338" y2="222.62" stroke="#F7C548" stroke-width="1.56373"/>
<line x1="224.66" y1="232.075" x2="224.66" y2="222.336" stroke="#F7C548" stroke-width="1.56373"/>
<line x1="35.5381" y1="227.987" x2="25.7994" y2="227.987" stroke="#F7C548" stroke-width="1.56373"/>
<line x1="57.2029" y1="228.888" x2="47.6122" y2="227.197" stroke="#F7C548" stroke-width="1.56373"/>
<line x1="78.6549" y1="229.766" x2="69.5036" y2="226.435" stroke="#F7C548" stroke-width="1.56373"/>
<line x1="77.9908" y1="247.36" x2="69.5569" y2="242.491" stroke="#F7C548" stroke-width="1.56373"/>
<line x1="99.0628" y1="248.194" x2="91.6025" y2="241.935" stroke="#F7C548" stroke-width="1.56373"/>
<line x1="119.979" y1="248.707" x2="113.719" y2="241.247" stroke="#F7C548" stroke-width="1.56373"/>
<line x1="140.77" y1="248.9" x2="135.9" y2="240.466" stroke="#F7C548" stroke-width="1.56373"/>
<line x1="161.468" y1="249.081" x2="158.137" y2="239.929" stroke="#F7C548" stroke-width="1.56373"/>
<line x1="182.116" y1="249.253" x2="180.425" y2="239.662" stroke="#F7C548" stroke-width="1.56373"/>
<line x1="202.747" y1="249.117" x2="202.747" y2="239.379" stroke="#F7C548" stroke-width="1.56373"/>
<line x1="223.405" y1="248.981" x2="225.096" y2="239.391" stroke="#F7C548" stroke-width="1.56373"/>
<line x1="13.6246" y1="245.03" x2="3.88593" y2="245.03" stroke="#F7C548" stroke-width="1.56373"/>
<line x1="35.2893" y1="245.931" x2="25.6986" y2="244.24" stroke="#F7C548" stroke-width="1.56373"/>
<line x1="56.7414" y1="246.809" x2="47.59" y2="243.478" stroke="#F7C548" stroke-width="1.56373"/>
<line x1="222.209" y1="265.588" x2="225.54" y2="256.437" stroke="#F7C548" stroke-width="1.56373"/>
<line x1="56.0803" y1="264.402" x2="47.6464" y2="259.533" stroke="#F7C548" stroke-width="1.56373"/>
<line x1="77.1492" y1="265.237" x2="69.689" y2="258.977" stroke="#F7C548" stroke-width="1.56373"/>
<line x1="98.0654" y1="265.75" x2="91.8055" y2="258.289" stroke="#F7C548" stroke-width="1.56373"/>
<line x1="118.856" y1="265.943" x2="113.987" y2="257.509" stroke="#F7C548" stroke-width="1.56373"/>
<line x1="139.558" y1="266.123" x2="136.227" y2="256.972" stroke="#F7C548" stroke-width="1.56373"/>
<line x1="160.205" y1="266.296" x2="158.514" y2="256.705" stroke="#F7C548" stroke-width="1.56373"/>
<line x1="180.836" y1="266.16" x2="180.836" y2="256.421" stroke="#F7C548" stroke-width="1.56373"/>
<line x1="201.491" y1="266.024" x2="203.182" y2="256.434" stroke="#F7C548" stroke-width="1.56373"/>
<line x1="13.3789" y1="262.973" x2="3.78819" y2="261.282" stroke="#F7C548" stroke-width="1.56373"/>
<line x1="34.8309" y1="263.851" x2="25.6796" y2="260.521" stroke="#F7C548" stroke-width="1.56373"/>
<line x1="200.299" y1="282.631" x2="203.629" y2="273.48" stroke="#F7C548" stroke-width="1.56373"/>
<line x1="221.112" y1="282.203" x2="225.982" y2="273.769" stroke="#F7C548" stroke-width="1.56373"/>
<line x1="34.1668" y1="281.445" x2="25.7329" y2="276.576" stroke="#F7C548" stroke-width="1.56373"/>
<line x1="55.2388" y1="282.28" x2="47.7785" y2="276.02" stroke="#F7C548" stroke-width="1.56373"/>
<line x1="76.1549" y1="282.792" x2="69.8951" y2="275.332" stroke="#F7C548" stroke-width="1.56373"/>
<line x1="96.9458" y1="282.985" x2="92.0765" y2="274.551" stroke="#F7C548" stroke-width="1.56373"/>
<line x1="117.644" y1="283.166" x2="114.313" y2="274.014" stroke="#F7C548" stroke-width="1.56373"/>
<line x1="138.292" y1="283.339" x2="136.601" y2="273.748" stroke="#F7C548" stroke-width="1.56373"/>
<line x1="158.923" y1="283.203" x2="158.923" y2="273.464" stroke="#F7C548" stroke-width="1.56373"/>
<line x1="179.581" y1="283.067" x2="181.272" y2="273.477" stroke="#F7C548" stroke-width="1.56373"/>
<line x1="12.9173" y1="280.894" x2="3.76601" y2="277.563" stroke="#F7C548" stroke-width="1.56373"/>
<line x1="178.385" y1="299.674" x2="181.716" y2="290.523" stroke="#F7C548" stroke-width="1.56373"/>
<line x1="199.202" y1="299.246" x2="204.071" y2="290.812" stroke="#F7C548" stroke-width="1.56373"/>
<line x1="220.149" y1="298.829" x2="226.409" y2="291.369" stroke="#F7C548" stroke-width="1.56373"/>
<line x1="12.2563" y1="298.488" x2="3.82237" y2="293.619" stroke="#F7C548" stroke-width="1.56373"/>
<line x1="33.3252" y1="299.322" x2="25.865" y2="293.063" stroke="#F7C548" stroke-width="1.56373"/>
<line x1="54.2414" y1="299.835" x2="47.9815" y2="292.374" stroke="#F7C548" stroke-width="1.56373"/>
<line x1="75.0322" y1="300.028" x2="70.1629" y2="291.594" stroke="#F7C548" stroke-width="1.56373"/>
<line x1="95.7337" y1="300.209" x2="92.4029" y2="291.057" stroke="#F7C548" stroke-width="1.56373"/>
<line x1="116.381" y1="300.381" x2="114.69" y2="290.79" stroke="#F7C548" stroke-width="1.56373"/>
<line x1="137.012" y1="300.245" x2="137.012" y2="290.507" stroke="#F7C548" stroke-width="1.56373"/>
<line x1="157.667" y1="300.109" x2="159.358" y2="290.519" stroke="#F7C548" stroke-width="1.56373"/>
<line x1="156.475" y1="316.716" x2="159.805" y2="307.565" stroke="#F7C548" stroke-width="1.56373"/>
<line x1="177.288" y1="316.289" x2="182.158" y2="307.855" stroke="#F7C548" stroke-width="1.56373"/>
<line x1="198.235" y1="315.872" x2="204.495" y2="308.412" stroke="#F7C548" stroke-width="1.56373"/>
<line x1="219.344" y1="315.167" x2="226.805" y2="308.908" stroke="#F7C548" stroke-width="1.56373"/>
<line x1="11.4147" y1="316.365" x2="3.95449" y2="310.105" stroke="#F7C548" stroke-width="1.56373"/>
<line x1="32.3309" y1="316.878" x2="26.071" y2="309.417" stroke="#F7C548" stroke-width="1.56373"/>
<line x1="53.1218" y1="317.071" x2="48.2525" y2="308.637" stroke="#F7C548" stroke-width="1.56373"/>
<line x1="73.8202" y1="317.251" x2="70.4893" y2="308.1" stroke="#F7C548" stroke-width="1.56373"/>
<line x1="94.4676" y1="317.424" x2="92.7765" y2="307.833" stroke="#F7C548" stroke-width="1.56373"/>
<line x1="115.099" y1="317.288" x2="115.099" y2="307.549" stroke="#F7C548" stroke-width="1.56373"/>
<line x1="135.757" y1="317.152" x2="137.448" y2="307.562" stroke="#F7C548" stroke-width="1.56373"/>
</svg>
